PathFileType	4	(X/Y/Z)	C:/Users/opensim2020/Desktop/walking_exp_matlab/subject02_walking04_straight_01.trc																																																																																																																												
DataRate	CameraRate	NumFrames	NumMarkers	Units	OrigDataRate	OrigDataStartFrame	OrigNumFrames																																																																																																																								
100	100	9	42	mm	100	991	302																																																																																																																								
Frame#	Time	LFHD			RFHD			LBHD			RBHD			C7			T10			CLAV			STRN			RBAK			LSHO			LUPA			LELB			LFRM			LWRA			LWRB			LFIN			RSHO			RUPA			RELB			RFRM			RWRA			RWRB			RFIN			LASI			RASI			LPSI			RPSI			LTHI			LKNE			LTIB			LANK			LHEE			LTOE			RTHI			RKNE			RTIB			RANK			RHEE			RTOE			*39			*40			*41		
		X1	Y1	Z1	X2	Y2	Z2	X3	Y3	Z3	X4	Y4	Z4	X5	Y5	Z5	X6	Y6	Z6	X7	Y7	Z7	X8	Y8	Z8	X9	Y9	Z9	X10	Y10	Z10	X11	Y11	Z11	X12	Y12	Z12	X13	Y13	Z13	X14	Y14	Z14	X15	Y15	Z15	X16	Y16	Z16	X17	Y17	Z17	X18	Y18	Z18	X19	Y19	Z19	X20	Y20	Z20	X21	Y21	Z21	X22	Y22	Z22	X23	Y23	Z23	X24	Y24	Z24	X25	Y25	Z25	X26	Y26	Z26	X27	Y27	Z27	X28	Y28	Z28	X29	Y29	Z29	X30	Y30	Z30	X31	Y31	Z31	X32	Y32	Z32	X33	Y33	Z33	X34	Y34	Z34	X35	Y35	Z35	X36	Y36	Z36	X37	Y37	Z37	X38	Y38	Z38	X39	Y39	Z39	X40	Y40	Z40	X41	Y41	Z41	X42	Y42	Z42
																																																																																																																															
265	2.64	767.42395	1736.07666	-1121.53516	756.47314	1714.30713	-978.47363	651.88275	1641.63623	-1144.01172	629.15179	1616.58142	-1004.19824	600.9328	1509.95325	-1076.14856	543.06134	1235.44592	-1069.9209	738.70435	1438.4071	-1082.53735	786.40253	1265.19385	-1079.03699	538.65057	1335.92114	-1016.93201	684.7879	1487.57239	-1251.98792	726.39648	1303.32275	-1353.08862	782.11993	1174.06226	-1383.47021	869.0658	1071.56372	-1390.10913	982.31207	1005.81512	-1346.01062	949.31702	979.19501	-1383.38293	1005.33618	946.07629	-1386.41443	672.31274	1469.44397	-887.07239	615.53259	1284.90442	-810.87762	608.56006	1135.65454	-802.13116	623.67981	1014.55194	-789.56787	660.61932	885.5545	-814.4649	611.25781	884.34344	-785.46326	642.7962	819.13715	-784.49139	761.40698	972.14667	-1222.33643	787.88483	961.22388	-964.3078	560.802	1015.38904	-1115.88953	565.86859	1012.46539	-1002.45764	643.42065	669.7616	-1263.7085	573.0285	478.06454	-1233.60352	461.72458	316.62393	-1230.05847	399.6282	99.68552	-1196.25793	360.60822	80.82822	-1143.74731	544.48615	35.18313	-1214.974	778.20996	663.52594	-882.01678	843.37726	467.58447	-928.04797	860.6167	280.1087	-928.50537	915.22644	94.03625	-963.31464	913.88208	37.71718	-1028.15479	1070.82715	76.24992	-920.44421	648.05328	1782.2356	-1041.84973	NaN	NaN	NaN	NaN	NaN	NaN
266	2.65	776.73926	1735.2467	-1118.77917	765.76093	1713.28308	-975.66193	661.22089	1640.71899	-1141.36304	638.32556	1615.53564	-1001.57764	610.41528	1508.85315	-1073.49475	553.5144	1233.98596	-1067.5896	748.42004	1437.64429	-1079.9873	796.7345	1264.64075	-1076.54114	548.70233	1334.41638	-1014.74664	694.53925	1486.49438	-1249.30176	735.5694	1302.60339	-1350.48682	790.56268	1172.92078	-1380.69543	877.06537	1070.09045	-1387.47485	990.37115	1004.09583	-1343.60156	956.98877	977.44092	-1380.73083	1012.77509	943.98065	-1383.81323	681.76703	1468.48669	-884.64178	625.3147	1283.92786	-808.56958	618.22687	1134.47961	-800.17035	633.40527	1013.57758	-787.46948	670.46271	884.46973	-812.36615	621.1925	883.42151	-783.36688	652.69714	818.18146	-782.44312	772.75476	971.32758	-1220.42908	799.6684	961.21021	-962.03827	572.34723	1014.06744	-1113.62012	577.02411	1011.13806	-1000.51825	653.39117	669.29895	-1262.54199	581.7345	478.34567	-1232.99988	467.50928	319.02737	-1229.59521	401.25958	103.05887	-1196.48352	362.00412	85.08837	-1144.16614	544.55811	35.13478	-1215.28918	791.71619	663.49237	-880.32434	853.36737	466.05289	-926.83856	866.7923	277.79086	-929.53442	917.3031	91.25362	-965.91248	914.505	35.20974	-1029.89648	1072.86853	70.22139	-923.7135	657.10602	1781.35779	-1039.23926	2845.10522	1033.79871	-3360.21411	NaN	NaN	NaN
267	2.66	785.96576	1734.47278	-1115.84058	774.74298	1712.54175	-972.79437	670.48932	1639.78003	-1138.65015	647.60681	1614.52637	-998.96448	619.77484	1507.59607	-1070.82434	563.9411	1232.26904	-1064.95532	758.09277	1436.9165	-1077.34521	807.20599	1264.19177	-1073.92249	558.81067	1332.87488	-1012.22711	704.17059	1485.56812	-1246.63306	744.66718	1301.65613	-1347.11877	798.74292	1171.78259	-1377.82642	884.58698	1068.38208	-1384.5697	997.55859	1001.79028	-1340.99194	964.05261	975.35541	-1378.01782	1019.64307	941.55322	-1381.10803	691.1441	1467.60669	-881.99463	634.94006	1282.93506	-806.02948	628.20294	1133.57104	-797.87695	643.23242	1012.53278	-785.32288	681.00623	883.60101	-810.02545	631.23969	882.40955	-781.25708	662.7403	817.12006	-780.3194	784.46948	970.64166	-1218.27405	811.47119	961.35455	-959.59241	584.01813	1012.75885	-1111.08459	588.40936	1009.83728	-998.27344	663.58331	669.03955	-1261.29211	590.85352	478.716	-1232.32788	473.526	321.67859	-1228.97083	403.11743	106.77766	-1196.87109	364.01282	89.75648	-1144.94263	544.73694	35.13208	-1215.51428	804.71411	662.89929	-878.36005	862.59778	464.43469	-925.59448	873.13824	275.72296	-930.65875	921.13275	89.67053	-966.81879	915.76563	36.27559	-1030.04504	1077.36658	63.24169	-926.76587	666.35571	1780.32129	-1036.23486	2845.29883	1033.72192	-3360.25	NaN	NaN	NaN
268	2.67	795.28619	1734.21936	-1112.80823	784.0705	1712.02905	-969.742	680.08057	1639.33179	-1135.83777	656.76343	1613.71497	-996.51575	628.88757	1506.58215	-1068.22632	574.39154	1231.57166	-1062.13208	767.86456	1436.39404	-1074.6637	817.69415	1264.16187	-1071.21143	568.63354	1331.92786	-1009.63733	713.70313	1484.86499	-1243.93152	753.72675	1300.82446	-1344.02979	806.64148	1170.61462	-1374.71973	891.73358	1066.56226	-1381.57727	1004.38782	999.26215	-1338.32129	970.60223	973.01392	-1375.19055	1025.92273	938.789	-1378.37866	700.59973	1466.8374	-879.29297	644.53436	1281.84595	-803.61365	638.17523	1132.54785	-795.51202	653.61987	1011.44714	-783.04724	691.02533	882.56677	-807.70123	641.54218	881.23071	-779.11884	673.0282	816.16223	-778.12585	796.61932	970.11646	-1215.87866	823.00177	961.64111	-957.06299	595.53461	1011.55438	-1108.48584	599.99365	1008.65698	-995.88513	674.08502	668.85718	-1259.82007	600.49811	479.22672	-1231.4668	479.99008	324.62598	-1228.32495	405.41565	111.02236	-1197.56299	366.36804	95.24623	-1145.42175	544.99353	35.13198	-1215.77576	816.25623	662.72144	-876.25519	872.08826	463.74786	-923.62341	881.5575	275.07355	-931.41705	928.47119	90.37766	-964.3053	919.3642	38.90082	-1027.5094	1085.10974	57.31691	-927.22906	675.39728	1779.83948	-1033.2843	2845.17773	1033.80518	-3360.26587	NaN	NaN	NaN
269	2.68	804.57605	1734.54541	-1109.6156	793.38031	1712.07227	-966.53912	689.61346	1639.42651	-1133.00061	666.15375	1613.53491	-993.79919	637.94092	1506.16089	-1065.57605	584.86371	1231.24658	-1059.47412	777.49573	1436.41235	-1071.93958	828.03168	1264.58167	-1068.48608	578.89545	1331.3728	-1007.37714	722.90375	1484.5343	-1241.34998	762.58826	1300.02808	-1340.91431	814.25262	1169.3999	-1371.40955	898.48462	1064.74768	-1378.45667	1010.81744	996.52692	-1335.58008	976.53961	970.45038	-1372.24817	1031.55896	935.71649	-1375.60925	710.02283	1466.28699	-876.3941	654.49579	1281.03833	-800.83954	648.42017	1131.60913	-793.03375	663.72217	1010.69061	-780.53271	701.75519	881.82904	-805.26501	652.13391	880.39886	-776.84558	683.94995	815.32141	-775.68835	808.9455	969.71436	-1213.21448	834.35309	962.11877	-954.39606	607.1062	1010.75256	-1105.87109	611.89386	1008.09259	-993.31836	685.02618	668.92908	-1258.21985	610.84094	479.99963	-1230.61096	487.10498	327.95816	-1227.62878	408.24631	115.84764	-1198.32092	369.16306	101.31008	-1146.11646	545.25098	35.14245	-1216.05444	826.27277	663.33496	-874.03052	882.49628	464.63477	-921.04791	891.69147	276.43619	-927.3316	935.8667	90.52714	-961.15521	921.69012	40.47033	-1025.13245	1090.67444	54.09149	-927.10339	684.47601	1779.6748	-1030.01453	2845.1499	1033.8457	-3360.26733	NaN	NaN	NaN
270	2.69	813.87848	1735.24634	-1106.30469	802.22693	1712.53516	-963.46375	699.03137	1640.06726	-1129.99463	675.66254	1614.10925	-990.51978	647.45142	1506.38611	-1062.82385	595.3924	1230.93555	-1057.13684	786.94745	1436.95361	-1069.13086	838.3634	1265.47498	-1065.66345	588.70343	1331.32642	-1004.65698	732.20905	1484.61121	-1239.00903	771.08502	1299.323	-1337.69446	821.61462	1168.25024	-1367.83301	904.68835	1062.74695	-1375.20776	1016.4176	993.37372	-1332.72388	981.85779	967.78308	-1369.30298	1036.52991	932.37103	-1372.73608	719.44824	1465.99243	-873.32892	664.35693	1280.50708	-798.21552	658.72504	1130.81836	-790.508	674.60962	1010.00159	-777.81879	712.66656	881.33008	-802.72491	662.99402	879.74762	-774.46692	695.01831	814.90039	-773.03473	821.37946	969.52789	-1210.2146	845.64886	962.87146	-951.68011	618.92682	1010.43213	-1103.52209	623.84198	1008.63654	-990.61835	696.44318	669.37744	-1256.37451	622.14331	480.80087	-1229.72192	495.15546	331.78046	-1227.00879	411.68906	121.32225	-1199.01819	373.14825	108.02812	-1146.67542	545.64008	35.21024	-1216.30652	835.49817	664.26154	-871.7536	895.07837	467.14081	-918.92432	903.70013	278.89447	-921.57947	939.19635	90.62366	-959.99628	922.41339	41.13765	-1024.37305	1091.84534	50.09573	-926.4743	693.49164	1780.17712	-1027.1178	2845.8501	1033.69104	-3357.16187	NaN	NaN	NaN
271	2.7	823.26245	1736.2301	-1102.96436	811.53131	1713.30005	-960.00922	708.40405	1641.18811	-1127.05322	684.40509	1614.88733	-988.08099	657.03052	1507.0155	-1060.24756	606.01007	1231.2876	-1055.23352	796.25507	1437.91504	-1066.27539	848.77356	1266.81689	-1062.6991	598.8855	1331.72961	-1002.14362	741.37994	1485.18689	-1236.77673	779.38104	1298.72815	-1334.30212	828.71667	1167.18237	-1364.14587	910.46082	1060.8158	-1372.00171	1021.54437	990.14539	-1329.79639	986.48077	964.89459	-1366.13013	1040.68628	928.77008	-1369.75293	728.97705	1466.03455	-870.29211	674.5921	1280.28052	-795.26453	669.53943	1130.65979	-787.84491	685.47198	1009.74969	-775.25427	723.79474	881.15778	-800.05035	674.18036	879.49365	-771.84088	706.38239	814.83154	-770.77338	833.78766	969.51703	-1207.12024	856.9101	964.00195	-948.77899	631.07257	1010.8136	-1101.45337	635.56738	1010.08838	-987.81104	708.25378	669.94537	-1254.34021	634.6059	482.09259	-1229.06897	504.3013	335.97638	-1226.43823	415.70731	127.4878	-1199.74255	377.6702	115.45115	-1147.28809	545.99921	35.23943	-1216.66565	844.66162	665.49298	-869.72168	908.2074	469.66791	-917.53027	914.84802	280.9007	-918.16992	940.45453	91.38536	-960.32263	922.41998	41.33186	-1024.05884	1092.68518	48.08398	-928.47223	702.78925	1781.01147	-1023.73352	2845.77124	1033.68176	-3357.02002	NaN	NaN	NaN
272	2.71	832.66473	1737.32532	-1099.52649	820.45087	1713.96545	-956.80536	717.72131	1642.55469	-1124.06494	693.60553	1616.1012	-984.7829	666.69366	1508.16577	-1057.30566	616.51178	1231.62683	-1053.39893	805.71039	1439.29053	-1063.50635	859.13354	1268.45813	-1059.72156	608.84332	1332.04053	-999.56702	750.60333	1486.17371	-1234.59814	787.37634	1298.50745	-1331.32275	835.47534	1166.38782	-1360.36804	915.69592	1058.84009	-1368.13379	1025.97217	986.74939	-1326.81006	990.39795	961.99335	-1362.91064	1043.99341	925.052	-1366.74207	738.47424	1466.57776	-867.41113	684.94537	1280.19446	-792.34027	680.58826	1130.62683	-785.30237	696.55872	1009.89185	-772.73352	735.33875	881.41962	-797.32629	685.70953	879.65125	-769.14832	717.96814	815.11328	-767.6535	846.04865	969.78888	-1203.505	868.10602	965.33044	-945.69659	643.28815	1011.86749	-1099.71741	647.00085	1012.20807	-985.11993	720.57257	670.60724	-1252.2113	648.36829	483.25687	-1228.51746	514.58984	340.50629	-1225.97717	420.83841	134.25679	-1200.44641	383.38016	123.67232	-1147.17712	546.31824	35.27162	-1217.00244	854.70935	666.72913	-868.41339	920.7569	471.26111	-916.35327	924.11841	282.15652	-916.24835	942.89044	92.72073	-960.04126	922.79706	41.71301	-1023.58276	1095.10339	46.99911	-930.50275	712.17236	1782.04907	-1020.61139	2845.83643	1033.66138	-3357.16284	NaN	NaN	NaN
273	2.72	842.10016	1738.49463	-1096.07251	829.15997	1714.95398	-953.75494	727.03235	1644.09229	-1121.0874	702.56799	1617.56555	-981.91095	676.04742	1509.25281	-1054.75195	626.94055	1232.13977	-1051.55591	815.16449	1440.83655	-1060.76746	869.50745	1270.33667	-1056.71545	618.82849	1332.53699	-997.10693	760.24249	1487.31799	-1232.32068	795.00891	1298.25671	-1327.53174	841.9267	1165.8385	-1356.35608	920.43292	1057.11511	-1364.38696	1029.72803	983.11414	-1323.60791	993.5506	959.06531	-1359.50061	1046.50317	921.28058	-1363.63635	747.8363	1467.5553	-864.76898	695.62256	1280.94324	-789.62024	692.16718	1131.30322	-782.69116	708.40875	1010.67993	-769.93427	747.24384	882.12079	-794.55646	697.63049	880.34088	-766.23254	730.10815	815.83441	-764.81281	858.24268	970.4342	-1199.65222	879.09387	966.91882	-942.41571	655.35266	1013.17975	-1097.96021	658.22589	1014.52771	-982.43652	733.50641	671.31311	-1250.15955	663.42041	484.30167	-1228.35669	526.25378	345.23468	-1225.41858	427.26834	141.59392	-1200.87146	390.68201	132.64629	-1147.36072	546.73578	35.35807	-1217.26306	865.9975	668.36218	-866.95422	932.10889	472.19275	-915.35126	931.72473	282.98209	-915.42877	945.49182	93.07408	-959.5246	923.37476	41.99118	-1023.34485	1096.56641	46.1217	-930.75018	721.60333	1783.56396	-1017.27954	2845.12695	1033.63904	-3360.25513	NaN	NaN	NaN
